<svg width="24" height="24" viewBox="0 0 24 24" xmlns="http://www.w3.org/2000/svg">
<path d="M18.788 5.21166C19.2567 5.68028 19.2567 6.44008 18.788 6.90871L13.6969 11.9999L18.788 17.091C19.2567 17.5597 19.2567 18.3195 18.788 18.7881C18.3194 19.2567 17.5596 19.2567 17.091 18.7881L11.9998 13.6969L6.90864 18.7881C6.44001 19.2567 5.68021 19.2567 5.21158 18.7881C4.74295 18.3195 4.74295 17.5597 5.21158 17.091L10.3027 11.9999L5.21158 6.90871C4.74295 6.44008 4.74295 5.68028 5.21158 5.21166C5.68021 4.74303 6.44001 4.74303 6.90864 5.21166L11.9998 10.3028L17.091 5.21166C17.5596 4.74303 18.3194 4.74303 18.788 5.21166Z"/>
</svg>
