<svg width="20" height="20" viewBox="0 0 20 20" xmlns="http://www.w3.org/2000/svg">
<path fill-rule="evenodd" clip-rule="evenodd" d="M2 7.68889C2 5.69759 2 4.70194 2.38753 3.94137C2.72842 3.27235 3.27235 2.72842 3.94137 2.38753C4.70194 2 5.69759 2 7.68889 2H12.3111C14.3024 2 15.2981 2 16.0586 2.38753C16.7277 2.72842 17.2716 3.27235 17.6125 3.94137C18 4.70194 18 5.69759 18 7.68889V10.8179C18 11.2449 18 11.4584 17.9108 11.577C17.8332 11.6804 17.7143 11.7448 17.5853 11.7535C17.4372 11.7634 17.2584 11.6468 16.9006 11.4137L14.3716 9.76562L14.2864 9.70991C13.9347 9.47961 13.5818 9.24851 13.1822 9.15987C12.8341 9.08266 12.4725 9.09035 12.128 9.18228C11.7325 9.28783 11.3897 9.53372 11.0482 9.77875L10.9654 9.83804L8.73816 11.4283C8.31225 11.7324 8.25944 11.7567 8.2233 11.7678C8.16228 11.7866 8.09795 11.792 8.03467 11.7836C7.99717 11.7787 7.94105 11.7635 7.47048 11.5345L7.00083 11.3059L6.92692 11.2698C6.61702 11.1183 6.30534 10.9659 5.96637 10.9143C5.67047 10.8693 5.36854 10.8846 5.07868 10.9591C4.74662 11.0446 4.45187 11.2276 4.15881 11.4095L4.08891 11.4529L2.36872 12.5165C2.20769 12.6161 2 12.5004 2 12.3111V7.68889ZM2.4402 14.5625C2.30256 14.6476 2.23374 14.6902 2.1844 14.754C2.14375 14.8067 2.11058 14.8813 2.09876 14.9467C2.08441 15.0261 2.09721 15.0963 2.12282 15.2367C2.18014 15.5508 2.26422 15.8166 2.38753 16.0586C2.72842 16.7277 3.27235 17.2716 3.94137 17.6125C4.70194 18 5.69759 18 7.68889 18H12.3111C14.3024 18 15.2981 18 16.0586 17.6125C16.7277 17.2716 17.2716 16.7277 17.6125 16.0586C17.8067 15.6775 17.9035 15.2373 17.9519 14.6425C17.9632 14.5033 17.9688 14.4337 17.9516 14.3636C17.9368 14.3036 17.9065 14.2418 17.8681 14.1934C17.8232 14.1369 17.761 14.0963 17.6365 14.0152L13.401 11.2551C12.9009 10.9292 12.838 10.9045 12.7972 10.8955C12.7276 10.88 12.6553 10.8816 12.5864 10.8999C12.546 10.9107 12.4842 10.938 11.9984 11.2849L9.7712 12.8751L9.699 12.9268C9.39791 13.1427 9.09528 13.3597 8.74555 13.4672C8.44049 13.5609 8.11881 13.5879 7.8024 13.5462C7.43966 13.4984 7.10515 13.3348 6.77233 13.172L6.69254 13.133L6.22289 12.9044C5.78591 12.6918 5.73433 12.6773 5.69911 12.6719C5.63993 12.6629 5.57954 12.666 5.52157 12.6809C5.48706 12.6897 5.43721 12.7094 5.02386 12.965L2.4402 14.5625ZM9.11111 7.33333C9.11111 8.31517 8.31517 9.11111 7.33333 9.11111C6.35149 9.11111 5.55556 8.31517 5.55556 7.33333C5.55556 6.35149 6.35149 5.55556 7.33333 5.55556C8.31517 5.55556 9.11111 6.35149 9.11111 7.33333Z"/>
</svg>
