<svg width="20" height="20" viewBox="0 0 20 20" xmlns="http://www.w3.org/2000/svg">
<path fill-rule="evenodd" clip-rule="evenodd" d="M18 4.75332C18 3.43955 16.727 2.59374 15.6619 3.1998L11.7688 5.41491C11.5955 5.51351 11.3952 5.53933 11.2057 5.48749L8.90579 4.85825C8.50554 4.74874 8.08211 4.81267 7.7239 5.03667L2.80606 8.112C2.30754 8.42375 1.99988 9.00392 1.99988 9.63227V11.6797C1.99988 11.9785 2.26736 12.1895 2.52637 12.095L7.70477 10.206C8.13779 10.0481 8.60299 10.0285 9.04581 10.1497L11.3418 10.7778C11.4894 10.8182 11.6445 10.8117 11.7888 10.759L17.7264 8.59309C17.8898 8.53351 18 8.36623 18 8.17781V4.75332ZM1.99988 14.4483C1.99988 14.2599 2.11005 14.0926 2.27339 14.033L8.21074 11.8672C8.35508 11.8145 8.51014 11.808 8.65775 11.8484L10.9537 12.4765C11.3966 12.5977 11.8618 12.5781 12.2948 12.4202L17.4735 10.5311C17.7325 10.4366 18 10.6476 18 10.9463V15.2526C18 16.2196 17.2836 17.0036 16.4 17.0036H3.59989C2.71623 17.0036 1.99988 16.2196 1.99988 15.2526V14.4483Z"/>
</svg>
